<mxfile host="app.diagrams.net" modified="2021-09-21T15:01:31.311Z" agent="5.0 (Windows NT 10.0; Win64; x64) AppleWebKit/537.36 (KHTML, like Gecko) Chrome/93.0.4577.63 Safari/537.36" etag="FZVtsmvrrHJM4kRHMAnZ" version="15.1.1" type="github">
  <diagram id="XPhHHCLm-9Wgk9YLsKPm" name="Page-1">
    <mxGraphModel dx="1271" dy="777" grid="1" gridSize="10" guides="1" tooltips="1" connect="1" arrows="1" fold="1" page="1" pageScale="1" pageWidth="850" pageHeight="1100" math="0" shadow="0">
      <root>
        <mxCell id="0" />
        <mxCell id="1" parent="0" />
        <mxCell id="nBsCWUYdzX43SWLqqMjy-1" value="Azure Virtual Desktop" style="aspect=fixed;html=1;points=[];align=left;image;fontSize=12;image=img/lib/azure2/other/Windows_Virtual_Desktop.svg;labelPosition=right;verticalLabelPosition=middle;verticalAlign=middle;fontFamily=Architects Daughter;fontSource=https%3A%2F%2Ffonts.googleapis.com%2Fcss%3Ffamily%3DArchitects%2BDaughter;" parent="1" vertex="1">
          <mxGeometry x="434.34" y="174" width="68" height="68" as="geometry" />
        </mxCell>
        <mxCell id="nBsCWUYdzX43SWLqqMjy-2" value="" style="aspect=fixed;html=1;points=[];align=left;image;fontSize=12;image=img/lib/azure2/identity/App_Registrations.svg;labelPosition=right;verticalLabelPosition=middle;verticalAlign=middle;fontFamily=Architects Daughter;fontSource=https%3A%2F%2Ffonts.googleapis.com%2Fcss%3Ffamily%3DArchitects%2BDaughter;" parent="1" vertex="1">
          <mxGeometry x="300" y="364" width="32.49" height="33" as="geometry" />
        </mxCell>
        <mxCell id="nBsCWUYdzX43SWLqqMjy-15" style="edgeStyle=orthogonalEdgeStyle;curved=1;orthogonalLoop=1;jettySize=auto;html=1;strokeWidth=2;fillColor=#dae8fc;strokeColor=#6c8ebf;" parent="1" source="nBsCWUYdzX43SWLqqMjy-3" target="nBsCWUYdzX43SWLqqMjy-13" edge="1">
          <mxGeometry relative="1" as="geometry" />
        </mxCell>
        <mxCell id="nBsCWUYdzX43SWLqqMjy-3" value="Azure Active Directory" style="aspect=fixed;html=1;points=[];align=right;image;fontSize=12;image=img/lib/azure2/identity/Azure_Active_Directory.svg;labelPosition=left;verticalLabelPosition=middle;verticalAlign=middle;fontFamily=Architects Daughter;fontSource=https%3A%2F%2Ffonts.googleapis.com%2Fcss%3Ffamily%3DArchitects%2BDaughter;" parent="1" vertex="1">
          <mxGeometry x="240" y="300" width="70" height="64" as="geometry" />
        </mxCell>
        <mxCell id="nBsCWUYdzX43SWLqqMjy-8" style="edgeStyle=orthogonalEdgeStyle;orthogonalLoop=1;jettySize=auto;html=1;fillColor=#dae8fc;strokeColor=#6c8ebf;curved=1;strokeWidth=2;" parent="1" source="nBsCWUYdzX43SWLqqMjy-4" target="nBsCWUYdzX43SWLqqMjy-1" edge="1">
          <mxGeometry relative="1" as="geometry" />
        </mxCell>
        <mxCell id="nBsCWUYdzX43SWLqqMjy-4" value="" style="aspect=fixed;html=1;points=[];align=center;image;fontSize=12;image=img/lib/azure2/compute/Virtual_Machine.svg;" parent="1" vertex="1">
          <mxGeometry x="452.17" y="307" width="32.34" height="30" as="geometry" />
        </mxCell>
        <mxCell id="nBsCWUYdzX43SWLqqMjy-11" style="edgeStyle=orthogonalEdgeStyle;curved=1;orthogonalLoop=1;jettySize=auto;html=1;strokeWidth=2;fillColor=#dae8fc;strokeColor=#6c8ebf;" parent="1" source="nBsCWUYdzX43SWLqqMjy-5" target="nBsCWUYdzX43SWLqqMjy-3" edge="1">
          <mxGeometry relative="1" as="geometry" />
        </mxCell>
        <mxCell id="nBsCWUYdzX43SWLqqMjy-5" value="" style="aspect=fixed;html=1;points=[];align=left;image;fontSize=12;image=img/lib/azure2/compute/Virtual_Machine.svg;labelPosition=right;verticalLabelPosition=middle;verticalAlign=middle;" parent="1" vertex="1">
          <mxGeometry x="462.17" y="317" width="32.34" height="30" as="geometry" />
        </mxCell>
        <mxCell id="nBsCWUYdzX43SWLqqMjy-6" value="Session hosts" style="aspect=fixed;html=1;points=[];align=left;image;fontSize=12;image=img/lib/azure2/compute/Virtual_Machine.svg;labelPosition=right;verticalLabelPosition=middle;verticalAlign=middle;fontFamily=Architects Daughter;fontSource=https%3A%2F%2Ffonts.googleapis.com%2Fcss%3Ffamily%3DArchitects%2BDaughter;" parent="1" vertex="1">
          <mxGeometry x="472.17" y="327" width="32.34" height="30" as="geometry" />
        </mxCell>
        <mxCell id="nBsCWUYdzX43SWLqqMjy-14" style="edgeStyle=orthogonalEdgeStyle;curved=1;orthogonalLoop=1;jettySize=auto;html=1;strokeWidth=2;fillColor=#dae8fc;strokeColor=#6c8ebf;" parent="1" source="nBsCWUYdzX43SWLqqMjy-13" target="nBsCWUYdzX43SWLqqMjy-1" edge="1">
          <mxGeometry relative="1" as="geometry" />
        </mxCell>
        <mxCell id="nBsCWUYdzX43SWLqqMjy-13" value="Microsoft Endpoint Manager" style="aspect=fixed;html=1;points=[];align=right;image;fontSize=12;image=img/lib/azure2/intune/Intune.svg;labelPosition=left;verticalLabelPosition=middle;verticalAlign=middle;fontFamily=Architects Daughter;fontSource=https%3A%2F%2Ffonts.googleapis.com%2Fcss%3Ffamily%3DArchitects%2BDaughter;" parent="1" vertex="1">
          <mxGeometry x="241" y="177" width="68" height="62" as="geometry" />
        </mxCell>
        <mxCell id="nBsCWUYdzX43SWLqqMjy-19" style="edgeStyle=orthogonalEdgeStyle;curved=1;orthogonalLoop=1;jettySize=auto;html=1;entryX=0.486;entryY=1.047;entryDx=0;entryDy=0;entryPerimeter=0;strokeWidth=2;fillColor=#dae8fc;strokeColor=#6c8ebf;startArrow=classic;startFill=1;" parent="1" source="nBsCWUYdzX43SWLqqMjy-18" target="nBsCWUYdzX43SWLqqMjy-3" edge="1">
          <mxGeometry relative="1" as="geometry" />
        </mxCell>
        <mxCell id="nBsCWUYdzX43SWLqqMjy-20" value="AD Sync" style="edgeLabel;html=1;align=center;verticalAlign=middle;resizable=0;points=[];fontFamily=Architects Daughter;fontSource=https%3A%2F%2Ffonts.googleapis.com%2Fcss%3Ffamily%3DArchitects%2BDaughter;" parent="nBsCWUYdzX43SWLqqMjy-19" vertex="1" connectable="0">
          <mxGeometry x="-0.25" y="9" relative="1" as="geometry">
            <mxPoint as="offset" />
          </mxGeometry>
        </mxCell>
        <mxCell id="nBsCWUYdzX43SWLqqMjy-18" value="On-premis AD" style="sketch=0;aspect=fixed;html=1;points=[];align=center;image;fontSize=12;image=img/lib/mscae/Active_Directory.svg;fontFamily=Architects Daughter;fontSource=https%3A%2F%2Ffonts.googleapis.com%2Fcss%3Ffamily%3DArchitects%2BDaughter;" parent="1" vertex="1">
          <mxGeometry x="130" y="400" width="50" height="50" as="geometry" />
        </mxCell>
        <mxCell id="nBsCWUYdzX43SWLqqMjy-27" value="&lt;h1 style=&quot;font-size: 28px&quot;&gt;&lt;font style=&quot;font-size: 28px&quot;&gt;Operation North-Star - Background&lt;/font&gt;&lt;/h1&gt;" style="text;html=1;strokeColor=none;fillColor=none;spacing=5;spacingTop=-20;whiteSpace=wrap;overflow=hidden;rounded=0;fontFamily=Architects Daughter;fontSource=https%3A%2F%2Ffonts.googleapis.com%2Fcss%3Ffamily%3DArchitects%2BDaughter;fontSize=28;" parent="1" vertex="1">
          <mxGeometry x="100" y="40" width="510" height="40" as="geometry" />
        </mxCell>
        <mxCell id="nBsCWUYdzX43SWLqqMjy-40" value="Azure" style="text;strokeColor=none;fillColor=none;html=1;fontSize=24;fontStyle=1;verticalAlign=middle;align=center;fontFamily=Architects Daughter;fontSource=https%3A%2F%2Ffonts.googleapis.com%2Fcss%3Ffamily%3DArchitects%2BDaughter;" parent="1" vertex="1">
          <mxGeometry x="452.17" y="100" width="100" height="40" as="geometry" />
        </mxCell>
        <mxCell id="nBsCWUYdzX43SWLqqMjy-55" value="Microsoft 365" style="text;strokeColor=none;fillColor=none;html=1;fontSize=24;fontStyle=1;verticalAlign=middle;align=center;fontFamily=Architects Daughter;fontSource=https%3A%2F%2Ffonts.googleapis.com%2Fcss%3Ffamily%3DArchitects%2BDaughter;" parent="1" vertex="1">
          <mxGeometry x="140" y="100" width="100" height="40" as="geometry" />
        </mxCell>
        <mxCell id="nBsCWUYdzX43SWLqqMjy-62" value="" style="aspect=fixed;html=1;points=[];align=right;image;fontSize=12;image=img/lib/azure2/identity/Groups.svg;dashed=1;fontFamily=Architects Daughter;fontSource=https%3A%2F%2Ffonts.googleapis.com%2Fcss%3Ffamily%3DArchitects%2BDaughter;fontColor=#000000;strokeWidth=3;fillColor=none;labelPosition=left;verticalLabelPosition=top;verticalAlign=bottom;" parent="1" vertex="1">
          <mxGeometry x="212" y="283.12" width="29" height="23.88" as="geometry" />
        </mxCell>
        <mxCell id="nBsCWUYdzX43SWLqqMjy-63" value="Users" style="aspect=fixed;html=1;points=[];align=right;image;fontSize=12;image=img/lib/azure2/identity/Users.svg;dashed=1;fontFamily=Architects Daughter;fontSource=https%3A%2F%2Ffonts.googleapis.com%2Fcss%3Ffamily%3DArchitects%2BDaughter;fontColor=#000000;strokeWidth=3;fillColor=none;labelPosition=left;verticalLabelPosition=top;verticalAlign=bottom;" parent="1" vertex="1">
          <mxGeometry x="111.71" y="390" width="18.29" height="20" as="geometry" />
        </mxCell>
        <mxCell id="A9tMjpqkmuNuvl3mLpHb-2" value="" style="ellipse;whiteSpace=wrap;html=1;aspect=fixed;strokeColor=#b85450;fillColor=none;strokeWidth=2;dashed=1;" vertex="1" parent="1">
          <mxGeometry x="198.25" y="266.81" width="56.5" height="56.5" as="geometry" />
        </mxCell>
        <mxCell id="A9tMjpqkmuNuvl3mLpHb-4" value="&lt;span style=&quot;font-family: &amp;#34;architects daughter&amp;#34; ; text-align: right ; background-color: rgb(255 , 255 , 255)&quot;&gt;AVD Session host AD group&lt;/span&gt;" style="text;html=1;strokeColor=none;fillColor=none;align=center;verticalAlign=middle;whiteSpace=wrap;rounded=0;dashed=1;" vertex="1" parent="1">
          <mxGeometry x="40.860000000000014" y="260" width="160" height="20" as="geometry" />
        </mxCell>
        <mxCell id="A9tMjpqkmuNuvl3mLpHb-5" value="" style="ellipse;whiteSpace=wrap;html=1;aspect=fixed;dashed=1;strokeWidth=2;strokeColor=#b85450;fillColor=none;" vertex="1" parent="1">
          <mxGeometry x="286.49" y="350.5" width="59.5" height="59.5" as="geometry" />
        </mxCell>
        <mxCell id="A9tMjpqkmuNuvl3mLpHb-6" value="&lt;span style=&quot;color: rgb(0 , 0 , 0) ; font-family: &amp;#34;architects daughter&amp;#34; ; font-size: 12px ; font-style: normal ; font-weight: 400 ; letter-spacing: normal ; text-align: left ; text-indent: 0px ; text-transform: none ; word-spacing: 0px ; background-color: rgb(255 , 255 , 255) ; display: inline ; float: none&quot;&gt;M365 App Registration&lt;/span&gt;&lt;br style=&quot;color: rgb(0 , 0 , 0) ; font-family: &amp;#34;architects daughter&amp;#34; ; font-size: 12px ; font-style: normal ; font-weight: 400 ; letter-spacing: normal ; text-align: left ; text-indent: 0px ; text-transform: none ; word-spacing: 0px&quot;&gt;&lt;font style=&quot;color: rgb(0 , 0 , 0) ; font-family: &amp;#34;architects daughter&amp;#34; ; font-style: normal ; font-weight: 400 ; letter-spacing: normal ; text-align: left ; text-indent: 0px ; text-transform: none ; word-spacing: 0px&quot; size=&quot;1&quot;&gt;&lt;i style=&quot;font-size: 11px&quot;&gt;(Graph API permissions)&lt;/i&gt;&lt;/font&gt;" style="text;whiteSpace=wrap;html=1;" vertex="1" parent="1">
          <mxGeometry x="350" y="390" width="150" height="50" as="geometry" />
        </mxCell>
      </root>
    </mxGraphModel>
  </diagram>
</mxfile>
